<svg width="40" height="40" viewBox="0 0 40 40" fill="none" xmlns="http://www.w3.org/2000/svg">
<rect width="40" height="40" fill="#1E1E1E"/>
<path d="M39.9972 20.0007C39.9972 30.1019 32.5098 38.4529 22.7831 39.808C21.8736 39.9341 20.9431 40 19.9986 40C18.9084 40 17.8377 39.9131 16.7951 39.745C7.27298 38.2118 0 29.9548 0 20.0007C0 8.95491 8.9546 0 20 0C31.0454 0 40 8.95491 40 20.0007H39.9972Z" fill="#1E1E1E"/>
<path d="M22.0432 13.732V16.6926H25.999L25.3726 20.6808H22.0432V29.8695C21.3757 29.9552 20.6927 30 19.9995 30C19.1993 30 18.4135 29.941 17.6482 29.8267V20.6808H14V16.6926H17.6482V13.0701C17.6482 10.8227 19.6158 9 22.0442 9V9.00191C22.0514 9.00191 22.0576 9 22.0648 9H26V12.4492H23.4286C22.6644 12.4492 22.0442 13.0234 22.0442 13.731L22.0432 13.732Z" fill="#A225EE"/>
</svg>
