<svg width="40" height="40" viewBox="0 0 40 40" fill="none" xmlns="http://www.w3.org/2000/svg">
<rect width="40" height="40" fill="#1E1E1E"/>
<path d="M20.0455 0H19.9545C8.93392 0 0 8.93392 0 19.9545V20.0455C0 31.0661 8.93392 40 19.9545 40H20.0455C31.0661 40 40 31.0661 40 20.0455V19.9545C40 8.93392 31.0661 0 20.0455 0Z" fill="#1E1E1E"/>
<path d="M26.1893 8.1377H13.8122C10.3928 8.1377 7.61099 10.9195 7.61099 14.3389V25.6621C7.61099 29.0815 10.3928 31.8633 13.8122 31.8633H26.1893C29.6087 31.8633 32.3904 29.0815 32.3904 25.6621V14.3389C32.3904 10.9195 29.6087 8.1377 26.1893 8.1377ZM9.79857 14.3389C9.79857 12.1261 11.5994 10.3253 13.8122 10.3253H26.1893C28.4021 10.3253 30.2029 12.1261 30.2029 14.3389V25.6621C30.2029 27.8749 28.4021 29.6757 26.1893 29.6757H13.8122C11.5994 29.6757 9.79857 27.8749 9.79857 25.6621V14.3389Z" fill="#A225EE"/>
<path d="M20.0008 25.7672C23.1805 25.7672 25.7689 23.1803 25.7689 19.9991C25.7689 16.8179 23.1819 14.231 20.0008 14.231C16.8196 14.231 14.2326 16.8179 14.2326 19.9991C14.2326 23.1803 16.8196 25.7672 20.0008 25.7672ZM20.0008 16.4199C21.9753 16.4199 23.5813 18.0259 23.5813 20.0005C23.5813 21.9751 21.9753 23.5811 20.0008 23.5811C18.0262 23.5811 16.4202 21.9751 16.4202 20.0005C16.4202 18.0259 18.0262 16.4199 20.0008 16.4199Z" fill="#A225EE"/>
<path d="M26.3028 15.163C27.1591 15.163 27.857 14.4665 27.857 13.6088C27.857 12.7512 27.1605 12.0547 26.3028 12.0547C25.4452 12.0547 24.7487 12.7512 24.7487 13.6088C24.7487 14.4665 25.4452 15.163 26.3028 15.163Z" fill="#A225EE"/>
</svg>
