<svg width="124" height="37" viewBox="0 0 124 37" fill="none" xmlns="http://www.w3.org/2000/svg">
<path d="M47.16 28V2.8H50.904V24.256H61.758V28H47.16ZM72.0253 28.468C70.3693 28.468 68.8573 28.042 67.4893 27.19C66.1333 26.338 65.0473 25.198 64.2313 23.77C63.4273 22.33 63.0253 20.74 63.0253 19C63.0253 17.68 63.2593 16.45 63.7273 15.31C64.1953 14.158 64.8373 13.15 65.6533 12.286C66.4813 11.41 67.4413 10.726 68.5333 10.234C69.6253 9.742 70.7893 9.496 72.0253 9.496C73.6813 9.496 75.1873 9.922 76.5433 10.774C77.9113 11.626 78.9973 12.772 79.8013 14.212C80.6173 15.652 81.0253 17.248 81.0253 19C81.0253 20.308 80.7913 21.532 80.3233 22.672C79.8553 23.812 79.2073 24.82 78.3793 25.696C77.5633 26.56 76.6093 27.238 75.5173 27.73C74.4373 28.222 73.2733 28.468 72.0253 28.468ZM72.0253 24.724C73.0213 24.724 73.9153 24.46 74.7073 23.932C75.4993 23.404 76.1233 22.708 76.5793 21.844C77.0473 20.968 77.2813 20.02 77.2813 19C77.2813 17.956 77.0413 16.996 76.5613 16.12C76.0933 15.244 75.4633 14.548 74.6713 14.032C73.8793 13.504 72.9973 13.24 72.0253 13.24C71.0413 13.24 70.1473 13.504 69.3433 14.032C68.5513 14.56 67.9213 15.262 67.4533 16.138C66.9973 17.014 66.7693 17.968 66.7693 19C66.7693 20.068 67.0093 21.034 67.4893 21.898C67.9693 22.762 68.6053 23.452 69.3973 23.968C70.2013 24.472 71.0773 24.724 72.0253 24.724ZM97.5963 10H101.34V28.468C101.34 29.704 101.076 30.844 100.548 31.888C100.032 32.932 99.3303 33.832 98.4423 34.588C97.5543 35.356 96.5343 35.95 95.3823 36.37C94.2423 36.79 93.0483 37 91.8003 37C90.5403 37 89.3283 36.73 88.1643 36.19C87.0003 35.662 85.9743 34.942 85.0863 34.03C84.2103 33.118 83.5563 32.086 83.1243 30.934L86.5623 29.386C86.8023 30.13 87.1863 30.79 87.7143 31.366C88.2543 31.942 88.8783 32.398 89.5863 32.734C90.3063 33.07 91.0443 33.238 91.8003 33.238C92.5443 33.238 93.2583 33.118 93.9423 32.878C94.6383 32.65 95.2563 32.326 95.7963 31.906C96.3483 31.486 96.7863 30.982 97.1103 30.394C97.4343 29.806 97.5963 29.164 97.5963 28.468V25.426C97.0083 26.338 96.2523 27.076 95.3283 27.64C94.4043 28.192 93.3303 28.468 92.1063 28.468C90.8343 28.468 89.6343 28.222 88.5063 27.73C87.3783 27.238 86.3883 26.56 85.5363 25.696C84.6843 24.82 84.0183 23.812 83.5383 22.672C83.0583 21.532 82.8183 20.308 82.8183 19C82.8183 17.692 83.0583 16.468 83.5383 15.328C84.0183 14.176 84.6843 13.168 85.5363 12.304C86.3883 11.428 87.3783 10.744 88.5063 10.252C89.6343 9.76 90.8343 9.514 92.1063 9.514C93.3303 9.514 94.4043 9.796 95.3283 10.36C96.2523 10.912 97.0083 11.65 97.5963 12.574V10ZM92.1423 24.85C93.1863 24.85 94.0983 24.586 94.8783 24.058C95.6583 23.518 96.2643 22.804 96.6963 21.916C97.1283 21.028 97.3443 20.056 97.3443 19C97.3443 17.92 97.1223 16.942 96.6783 16.066C96.2463 15.178 95.6403 14.47 94.8603 13.942C94.0803 13.402 93.1743 13.132 92.1423 13.132C91.1343 13.132 90.2103 13.396 89.3703 13.924C88.5423 14.452 87.8823 15.16 87.3903 16.048C86.8983 16.936 86.6523 17.92 86.6523 19C86.6523 20.08 86.8983 21.064 87.3903 21.952C87.8943 22.84 88.5603 23.548 89.3883 24.076C90.2283 24.592 91.1463 24.85 92.1423 24.85ZM113.264 28.468C111.608 28.468 110.096 28.042 108.728 27.19C107.372 26.338 106.286 25.198 105.47 23.77C104.666 22.33 104.264 20.74 104.264 19C104.264 17.68 104.498 16.45 104.966 15.31C105.434 14.158 106.076 13.15 106.892 12.286C107.72 11.41 108.68 10.726 109.772 10.234C110.864 9.742 112.028 9.496 113.264 9.496C114.92 9.496 116.426 9.922 117.782 10.774C119.15 11.626 120.236 12.772 121.04 14.212C121.856 15.652 122.264 17.248 122.264 19C122.264 20.308 122.03 21.532 121.562 22.672C121.094 23.812 120.446 24.82 119.618 25.696C118.802 26.56 117.848 27.238 116.756 27.73C115.676 28.222 114.512 28.468 113.264 28.468ZM113.264 24.724C114.26 24.724 115.154 24.46 115.946 23.932C116.738 23.404 117.362 22.708 117.818 21.844C118.286 20.968 118.52 20.02 118.52 19C118.52 17.956 118.28 16.996 117.8 16.12C117.332 15.244 116.702 14.548 115.91 14.032C115.118 13.504 114.236 13.24 113.264 13.24C112.28 13.24 111.386 13.504 110.582 14.032C109.79 14.56 109.16 15.262 108.692 16.138C108.236 17.014 108.008 17.968 108.008 19C108.008 20.068 108.248 21.034 108.728 21.898C109.208 22.762 109.844 23.452 110.636 23.968C111.44 24.472 112.316 24.724 113.264 24.724Z" fill="white"/>
<circle cx="15" cy="15" r="15" fill="white"/>
</svg>
