<svg width="185" height="50" viewBox="0 0 185 50" fill="none" xmlns="http://www.w3.org/2000/svg">
<g clip-path="url(#clip0_39_31)">
<path d="M75.6653 37.9883L72.8507 35.1824C71.8656 35.9825 70.7632 36.606 69.5436 37.053C68.3239 37.5001 67.0339 37.7236 65.6735 37.7236C63.9965 37.7236 62.425 37.3942 60.9591 36.7354C59.4932 36.0648 58.2032 35.1472 57.0891 33.9825C55.9749 32.806 55.1013 31.4413 54.468 29.8883C53.8464 28.3354 53.5356 26.6766 53.5356 24.9119C53.5356 23.1472 53.8464 21.4942 54.468 19.953C55.1013 18.4001 55.9749 17.0354 57.0891 15.8589C58.2032 14.6825 59.4932 13.7648 60.9591 13.106C62.425 12.4354 63.9965 12.1001 65.6735 12.1001C67.3505 12.1001 68.9162 12.4354 70.3704 13.106C71.8363 13.7648 73.1263 14.6825 74.2404 15.8589C75.3545 17.0354 76.2223 18.4001 76.8439 19.953C77.4772 21.4942 77.7938 23.1472 77.7938 24.9119C77.7938 26.3472 77.5769 27.7119 77.1429 29.006C76.7207 30.2883 76.1344 31.4648 75.3838 32.5354L78.2512 35.3942L75.6653 37.9883ZM65.6735 34.053C66.4944 34.053 67.2919 33.9177 68.0659 33.6472C68.8517 33.3766 69.5612 32.9942 70.1944 32.5001L67.4678 29.7825L70.0537 27.1707L72.6572 29.8001C73.1497 29.0942 73.5192 28.3236 73.7654 27.4883C74.0117 26.653 74.1349 25.7942 74.1349 24.9119C74.1349 23.653 73.912 22.4766 73.4664 21.3825C73.0325 20.2766 72.4226 19.306 71.6369 18.4707C70.8629 17.6236 69.9658 16.9648 68.9455 16.4942C67.9252 16.0119 66.8345 15.7707 65.6735 15.7707C64.5008 15.7707 63.4043 16.0119 62.384 16.4942C61.3637 16.9766 60.4607 17.6413 59.6749 18.4883C58.9009 19.3236 58.2911 20.2942 57.8455 21.4001C57.4116 22.4942 57.1946 23.6648 57.1946 24.9119C57.1946 26.1707 57.4116 27.353 57.8455 28.4589C58.2911 29.5648 58.9068 30.5413 59.6925 31.3883C60.4783 32.2236 61.3813 32.8766 62.4016 33.3472C63.4219 33.8177 64.5125 34.053 65.6735 34.053ZM80.6436 30.7354V19.706H84.3025V29.8354C84.3025 30.6236 84.496 31.3413 84.883 31.9883C85.27 32.6354 85.786 33.153 86.4311 33.5413C87.0761 33.9177 87.7856 34.106 88.5596 34.106C89.3453 34.106 90.0548 33.9177 90.6881 33.5413C91.3331 33.153 91.8433 32.6354 92.2185 31.9883C92.6055 31.3413 92.799 30.6236 92.799 29.8354V19.706H96.458L96.4756 37.353H92.8166L92.799 35.4472C92.2009 36.1766 91.4563 36.753 90.565 37.1766C89.6737 37.6001 88.7179 37.8119 87.6976 37.8119C86.3959 37.8119 85.2114 37.4942 84.1442 36.8589C83.077 36.2236 82.2268 35.3707 81.5935 34.3001C80.9602 33.2295 80.6436 32.0413 80.6436 30.7354ZM107.503 37.8119C105.885 37.8119 104.407 37.3942 103.071 36.5589C101.745 35.7236 100.684 34.606 99.8865 33.206C99.1008 31.7942 98.7079 30.2354 98.7079 28.5295C98.7079 27.2354 98.9366 26.0295 99.394 24.9119C99.8513 23.7825 100.479 22.7942 101.276 21.9472C102.085 21.0883 103.024 20.4177 104.091 19.9354C105.158 19.453 106.296 19.2119 107.503 19.2119C109.122 19.2119 110.594 19.6295 111.919 20.4648C113.256 21.3001 114.317 22.4236 115.103 23.8354C115.9 25.2472 116.299 26.8119 116.299 28.5295C116.299 29.8119 116.07 31.0119 115.613 32.1295C115.156 33.2472 114.522 34.2354 113.713 35.0942C112.916 35.9413 111.983 36.606 110.916 37.0883C109.861 37.5707 108.723 37.8119 107.503 37.8119ZM107.503 34.1413C108.477 34.1413 109.351 33.8825 110.125 33.3648C110.899 32.8472 111.508 32.1648 111.954 31.3177C112.411 30.4589 112.64 29.5295 112.64 28.5295C112.64 27.506 112.406 26.5648 111.936 25.706C111.479 24.8472 110.863 24.1648 110.089 23.6589C109.315 23.1413 108.453 22.8825 107.503 22.8825C106.542 22.8825 105.668 23.1413 104.882 23.6589C104.108 24.1766 103.493 24.8648 103.035 25.7236C102.59 26.5825 102.367 27.5177 102.367 28.5295C102.367 29.5766 102.601 30.5236 103.071 31.3707C103.54 32.2177 104.161 32.8942 104.935 33.4001C105.721 33.8942 106.577 34.1413 107.503 34.1413ZM119.141 37.353V19.706H122.8V21.5766C123.41 20.8472 124.16 20.2707 125.052 19.8472C125.943 19.4236 126.905 19.2119 127.937 19.2119C128.593 19.2119 129.244 19.3001 129.889 19.4766L128.429 23.1825C127.972 23.006 127.515 22.9177 127.057 22.9177C126.283 22.9177 125.574 23.1119 124.929 23.5001C124.284 23.8766 123.768 24.3883 123.381 25.0354C122.994 25.6825 122.8 26.4001 122.8 27.1883V37.353H119.141ZM131.922 19.706H135.581V37.353H131.922V19.706ZM133.786 17.1472C133.223 17.1472 132.754 16.9648 132.379 16.6001C132.004 16.2354 131.816 15.7766 131.816 15.2236C131.816 14.6825 132.004 14.2295 132.379 13.8648C132.754 13.4883 133.218 13.3001 133.769 13.3001C134.308 13.3001 134.766 13.4883 135.141 13.8648C135.516 14.2295 135.704 14.6825 135.704 15.2236C135.704 15.7766 135.516 16.2354 135.141 16.6001C134.777 16.9648 134.326 17.1472 133.786 17.1472ZM138.433 37.353L144.872 28.4942L138.469 19.6707H142.989L147.123 25.353L151.275 19.6707H155.778L149.393 28.4942L155.831 37.353H151.31L147.123 31.6001L142.954 37.353H138.433ZM158.687 19.706H162.346V37.353H158.687V19.706ZM160.551 17.1472C159.988 17.1472 159.519 16.9648 159.144 16.6001C158.769 16.2354 158.581 15.7766 158.581 15.2236C158.581 14.6825 158.769 14.2295 159.144 13.8648C159.519 13.4883 159.982 13.3001 160.534 13.3001C161.073 13.3001 161.53 13.4883 161.906 13.8648C162.281 14.2295 162.469 14.6825 162.469 15.2236C162.469 15.7766 162.281 16.2354 161.906 16.6001C161.542 16.9648 161.091 17.1472 160.551 17.1472ZM179.931 19.706H183.59V37.353H179.914L179.773 34.7942C179.257 35.7001 178.559 36.4295 177.68 36.9825C176.8 37.5354 175.762 37.8119 174.566 37.8119C173.276 37.8119 172.062 37.5707 170.925 37.0883C169.787 36.5942 168.784 35.9119 167.917 35.0413C167.061 34.1707 166.392 33.1707 165.911 32.0413C165.43 30.9001 165.19 29.6766 165.19 28.3707C165.19 27.1119 165.425 25.9295 165.894 24.8236C166.363 23.706 167.014 22.7295 167.846 21.8942C168.679 21.0589 169.641 20.406 170.731 19.9354C171.834 19.453 173.012 19.2119 174.267 19.2119C175.545 19.2119 176.671 19.506 177.645 20.0942C178.63 20.6707 179.445 21.4119 180.09 22.3177L179.931 19.706ZM174.478 34.2648C175.51 34.2648 176.413 34.0119 177.187 33.506C177.961 32.9883 178.559 32.2942 178.981 31.4236C179.415 30.553 179.632 29.5883 179.632 28.5295C179.632 27.4589 179.415 26.4883 178.981 25.6177C178.548 24.7472 177.944 24.0589 177.17 23.553C176.407 23.0354 175.51 22.7766 174.478 22.7766C173.458 22.7766 172.526 23.0354 171.681 23.553C170.837 24.0707 170.168 24.7648 169.676 25.6354C169.183 26.506 168.937 27.4707 168.937 28.5295C168.937 29.6001 169.189 30.5707 169.693 31.4413C170.209 32.3001 170.884 32.9883 171.716 33.506C172.561 34.0119 173.481 34.2648 174.478 34.2648Z" fill="white"/>
<path fill-rule="evenodd" clip-rule="evenodd" d="M21.9958 46.0389C32.3112 45.1275 40.401 36.438 40.401 25.8531C40.401 21.7196 39.1673 17.8752 37.0493 14.6701C35.4262 16.1426 33.9953 17.5277 32.7302 18.8578C33.8813 20.9284 34.5372 23.3139 34.5372 25.8531C34.5372 32.942 29.4249 38.833 22.6971 40.0181C22.4309 41.8584 22.2064 43.8503 21.9958 46.0389ZM21.1299 40.2057C20.8226 40.2254 20.5127 40.2354 20.2005 40.2354C19.8413 40.2354 19.4852 40.2222 19.1327 40.1961C19.2127 40.7804 19.2884 41.3783 19.3608 41.9911C19.5147 43.2941 19.6534 44.6644 19.7852 46.1136C19.9233 46.1164 20.0617 46.1178 20.2005 46.1178C20.2859 46.1178 20.3713 46.1173 20.4565 46.1162C20.5942 44.6679 20.7382 43.2974 20.8969 41.9937C20.9711 41.3835 21.0485 40.7879 21.1299 40.2057ZM31.8911 17.5259C33.1076 16.262 34.4628 14.9558 35.9756 13.5819C36.0347 13.5282 36.0941 13.4744 36.1537 13.4204C35.8454 13.023 35.5227 12.6373 35.1864 12.2643L29.5343 14.9359C30.4205 15.6991 31.2127 16.5691 31.8911 17.5259ZM12.1635 13.9414C12.9744 13.3897 13.8446 12.9191 14.7626 12.5414C13.2897 11.2214 12.3049 9.36473 12.1134 7.27761C9.94573 8.22867 7.97658 9.55044 6.28554 11.1629L12.1635 13.9414ZM4.17195 13.5182C4.48693 13.1069 4.81728 12.7081 5.16215 12.3226L10.8045 14.9897C9.91078 15.7683 9.11408 16.6561 8.435 17.6324C7.18779 16.335 5.79414 14.9917 4.23413 13.5746C4.21343 13.5558 4.1927 13.537 4.17195 13.5182ZM3.28323 14.7744C1.20707 17.9584 0 21.7644 0 25.8531C0 36.3834 8.00642 45.0378 18.2456 46.0241C18.0434 43.8294 17.8257 41.8343 17.5646 39.9928C10.9056 38.7514 5.86371 32.8929 5.86371 25.8531C5.86371 23.3618 6.49511 21.0184 7.60617 18.9753C6.3406 17.6427 4.90846 16.2534 3.28323 14.7744ZM26.6204 6.6332C24.6035 5.95556 22.4448 5.58838 20.2005 5.58838C17.8913 5.58838 15.6725 5.97708 13.6058 6.69285C13.6595 8.8872 14.7924 10.813 16.4921 11.9565C17.675 11.6396 18.9181 11.4707 20.2005 11.4707C21.4371 11.4707 22.6372 11.6278 23.782 11.9231C25.4697 10.7653 26.5863 8.83108 26.6204 6.6332ZM28.1181 7.20414C27.9453 9.2952 26.9768 11.1597 25.517 12.4921C26.4523 12.8669 27.339 13.3378 28.1651 13.8924L34.057 11.1074C32.335 9.47832 30.3276 8.14944 28.1181 7.20414Z" fill="#A225EE"/>
<path d="M20.1125 50C18.5586 30.3823 17.0341 24.2353 0 9.88232L20.1125 19.3894L40.225 9.88232C23.2789 24.1176 21.7544 30.3823 20.1125 50Z" fill="white"/>
<path d="M26.6213 6.52941C26.6213 10.1355 23.7072 13.0588 20.1125 13.0588C16.5178 13.0588 13.6038 10.1355 13.6038 6.52941C13.6038 2.92332 16.5178 0 20.1125 0C23.7072 0 26.6213 2.92332 26.6213 6.52941Z" fill="white"/>
</g>
<defs>
<clipPath id="clip0_39_31">
<rect width="185" height="50" fill="white"/>
</clipPath>
</defs>
</svg>
