<svg width="184" height="50" viewBox="0 0 184 50" fill="none" xmlns="http://www.w3.org/2000/svg">
<g clip-path="url(#clip0_36_635)">
<path d="M74.8619 37.9882L72.0772 35.1824C71.1026 35.9824 70.0119 36.6059 68.8052 37.0529C67.5985 37.5 66.3222 37.7235 64.9762 37.7235C63.317 37.7235 61.7622 37.3941 60.3119 36.7353C58.8615 36.0647 57.5852 35.1471 56.4829 33.9824C55.3806 32.8059 54.5162 31.4412 53.8897 29.8882C53.2747 28.3353 52.9672 26.6765 52.9672 24.9118C52.9672 23.1471 53.2747 21.4941 53.8897 19.9529C54.5162 18.4 55.3806 17.0353 56.4829 15.8588C57.5852 14.6824 58.8615 13.7647 60.3119 13.1059C61.7622 12.4353 63.317 12.1 64.9762 12.1C66.6354 12.1 68.1844 12.4353 69.6232 13.1059C71.0735 13.7647 72.3499 14.6824 73.4521 15.8588C74.5544 17.0353 75.413 18.4 76.028 19.9529C76.6545 21.4941 76.9678 23.1471 76.9678 24.9118C76.9678 26.3471 76.7532 27.7118 76.3239 29.0059C75.9062 30.2882 75.326 31.4647 74.5834 32.5353L77.4203 35.3941L74.8619 37.9882ZM64.9762 34.0529C65.7884 34.0529 66.5774 33.9177 67.3432 33.6471C68.1206 33.3765 68.8226 32.9941 69.4491 32.5L66.7515 29.7824L69.3099 27.1706L71.8857 29.8C72.3731 29.0941 72.7386 28.3235 72.9822 27.4882C73.2259 26.6529 73.3477 25.7941 73.3477 24.9118C73.3477 23.6529 73.1273 22.4765 72.6864 21.3824C72.257 20.2765 71.6537 19.3059 70.8763 18.4706C70.1105 17.6235 69.2229 16.9647 68.2134 16.4941C67.204 16.0118 66.1249 15.7706 64.9762 15.7706C63.8159 15.7706 62.7311 16.0118 61.7216 16.4941C60.7122 16.9765 59.8187 17.6412 59.0413 18.4882C58.2756 19.3235 57.6722 20.2941 57.2313 21.4C56.802 22.4941 56.5873 23.6647 56.5873 24.9118C56.5873 26.1706 56.802 27.3529 57.2313 28.4588C57.6722 29.5647 58.2814 30.5412 59.0587 31.3882C59.8361 32.2235 60.7296 32.8765 61.739 33.3471C62.7485 33.8177 63.8275 34.0529 64.9762 34.0529ZM79.7873 30.7353V19.7059H83.4074V29.8353C83.4074 30.6235 83.5989 31.3412 83.9818 31.9882C84.3647 32.6353 84.8752 33.1529 85.5134 33.5412C86.1515 33.9177 86.8535 34.1059 87.6193 34.1059C88.3967 34.1059 89.0987 33.9177 89.7252 33.5412C90.3634 33.1529 90.8681 32.6353 91.2394 31.9882C91.6223 31.3412 91.8137 30.6235 91.8137 29.8353V19.7059H95.4338L95.4512 37.3529H91.8311L91.8137 35.4471C91.222 36.1765 90.4852 36.7529 89.6034 37.1765C88.7216 37.6 87.7759 37.8118 86.7665 37.8118C85.4785 37.8118 84.3067 37.4941 83.2508 36.8588C82.1949 36.2235 81.3537 35.3706 80.7272 34.3C80.1006 33.2294 79.7873 32.0412 79.7873 30.7353ZM106.362 37.8118C104.761 37.8118 103.299 37.3941 101.976 36.5588C100.665 35.7235 99.6149 34.6059 98.8259 33.2059C98.0485 31.7941 97.6599 30.2353 97.6599 28.5294C97.6599 27.2353 97.8861 26.0294 98.3386 24.9118C98.7911 23.7824 99.4119 22.7941 100.201 21.9471C101.001 21.0882 101.93 20.4177 102.986 19.9353C104.041 19.4529 105.167 19.2118 106.362 19.2118C107.963 19.2118 109.419 19.6294 110.731 20.4647C112.053 21.3 113.103 22.4235 113.881 23.8353C114.67 25.2471 115.064 26.8118 115.064 28.5294C115.064 29.8118 114.838 31.0118 114.385 32.1294C113.933 33.2471 113.306 34.2353 112.506 35.0941C111.717 35.9412 110.794 36.6059 109.738 37.0882C108.694 37.5706 107.569 37.8118 106.362 37.8118ZM106.362 34.1412C107.325 34.1412 108.189 33.8824 108.955 33.3647C109.721 32.8471 110.324 32.1647 110.765 31.3177C111.218 30.4588 111.444 29.5294 111.444 28.5294C111.444 27.5059 111.212 26.5647 110.748 25.7059C110.295 24.8471 109.686 24.1647 108.92 23.6588C108.155 23.1412 107.302 22.8824 106.362 22.8824C105.411 22.8824 104.546 23.1412 103.769 23.6588C103.003 24.1765 102.394 24.8647 101.941 25.7235C101.5 26.5824 101.28 27.5177 101.28 28.5294C101.28 29.5765 101.512 30.5235 101.976 31.3706C102.44 32.2177 103.055 32.8941 103.821 33.4C104.598 33.8941 105.445 34.1412 106.362 34.1412ZM117.876 37.3529V19.7059H121.496V21.5765C122.1 20.8471 122.842 20.2706 123.724 19.8471C124.606 19.4235 125.557 19.2118 126.578 19.2118C127.228 19.2118 127.872 19.3 128.51 19.4765L127.066 23.1824C126.613 23.0059 126.161 22.9177 125.708 22.9177C124.942 22.9177 124.24 23.1118 123.602 23.5C122.964 23.8765 122.453 24.3882 122.071 25.0353C121.688 25.6824 121.496 26.4 121.496 27.1882V37.3529H117.876ZM130.521 19.7059H134.141V37.3529H130.521V19.7059ZM132.366 17.1471C131.809 17.1471 131.345 16.9647 130.974 16.6C130.602 16.2353 130.417 15.7765 130.417 15.2235C130.417 14.6824 130.602 14.2294 130.974 13.8647C131.345 13.4882 131.803 13.3 132.348 13.3C132.882 13.3 133.335 13.4882 133.706 13.8647C134.077 14.2294 134.263 14.6824 134.263 15.2235C134.263 15.7765 134.077 16.2353 133.706 16.6C133.346 16.9647 132.9 17.1471 132.366 17.1471ZM136.964 37.3529L143.334 28.4941L136.998 19.6706H141.471L145.561 25.3529L149.669 19.6706H154.124L147.806 28.4941L154.176 37.3529H149.703L145.561 31.6L141.436 37.3529H136.964ZM157.002 19.7059H160.622V37.3529H157.002V19.7059ZM158.847 17.1471C158.29 17.1471 157.826 16.9647 157.454 16.6C157.083 16.2353 156.897 15.7765 156.897 15.2235C156.897 14.6824 157.083 14.2294 157.454 13.8647C157.826 13.4882 158.284 13.3 158.829 13.3C159.363 13.3 159.815 13.4882 160.187 13.8647C160.558 14.2294 160.744 14.6824 160.744 15.2235C160.744 15.7765 160.558 16.2353 160.187 16.6C159.827 16.9647 159.38 17.1471 158.847 17.1471ZM178.021 19.7059H181.641V37.3529H178.004L177.864 34.7941C177.354 35.7 176.663 36.4294 175.793 36.9824C174.923 37.5353 173.896 37.8118 172.713 37.8118C171.436 37.8118 170.235 37.5706 169.11 37.0882C167.984 36.5941 166.992 35.9118 166.134 35.0412C165.287 34.1706 164.625 33.1706 164.15 32.0412C163.674 30.9 163.436 29.6765 163.436 28.3706C163.436 27.1118 163.668 25.9294 164.132 24.8235C164.596 23.7059 165.24 22.7294 166.064 21.8941C166.888 21.0588 167.839 20.4059 168.918 19.9353C170.009 19.4529 171.175 19.2118 172.417 19.2118C173.681 19.2118 174.795 19.5059 175.758 20.0941C176.733 20.6706 177.539 21.4118 178.178 22.3177L178.021 19.7059ZM172.626 34.2647C173.647 34.2647 174.54 34.0118 175.306 33.5059C176.072 32.9882 176.663 32.2941 177.081 31.4235C177.51 30.5529 177.725 29.5882 177.725 28.5294C177.725 27.4588 177.51 26.4882 177.081 25.6177C176.652 24.7471 176.054 24.0588 175.288 23.5529C174.534 23.0353 173.647 22.7765 172.626 22.7765C171.616 22.7765 170.694 23.0353 169.858 23.5529C169.023 24.0706 168.362 24.7647 167.874 25.6353C167.387 26.5059 167.143 27.4706 167.143 28.5294C167.143 29.6 167.393 30.5706 167.892 31.4412C168.402 32.3 169.069 32.9882 169.893 33.5059C170.729 34.0118 171.639 34.2647 172.626 34.2647Z" fill="#1E1E1E"/>
<path fill-rule="evenodd" clip-rule="evenodd" d="M21.7623 46.0387C31.9681 45.1273 39.972 36.4379 39.972 25.8529C39.972 21.7195 38.7514 17.8751 36.6559 14.6699C35.0501 16.1425 33.6344 17.5275 32.3826 18.8576C33.5216 20.9282 34.1705 23.3138 34.1705 25.8529C34.1705 32.9418 29.1125 38.8328 22.4561 40.018C22.1927 41.8582 21.9706 43.8502 21.7623 46.0387ZM20.9056 40.2055C20.6015 40.2253 20.2949 40.2353 19.986 40.2353C19.6307 40.2353 19.2783 40.222 18.9296 40.196C19.0087 40.7802 19.0836 41.3781 19.1552 41.9909C19.3075 43.294 19.4447 44.6643 19.5751 46.1135C19.7118 46.1162 19.8487 46.1176 19.986 46.1176C20.0705 46.1176 20.155 46.1171 20.2393 46.1161C20.3756 44.6677 20.518 43.2973 20.675 41.9936C20.7484 41.3833 20.825 40.7878 20.9056 40.2055ZM31.5525 17.5257C32.756 16.2619 34.0969 14.9557 35.5936 13.5818C35.6521 13.528 35.7108 13.4742 35.7698 13.4203C35.4648 13.0228 35.1455 12.6371 34.8128 12.2641L29.2207 14.9358C30.0975 15.699 30.8813 16.5689 31.5525 17.5257ZM12.0344 13.9412C12.8366 13.3895 13.6976 12.919 14.6058 12.5412C13.1486 11.2212 12.1742 9.36458 11.9847 7.27746C9.84013 8.22852 7.89189 9.55029 6.21881 11.1628L12.0344 13.9412ZM4.12766 13.5181C4.43929 13.1068 4.76613 12.7079 5.10734 12.3225L10.6898 14.9896C9.80555 15.7682 9.01731 16.6559 8.34544 17.6322C7.11147 16.3349 5.73262 14.9915 4.18917 13.5745C4.16869 13.5557 4.14819 13.5369 4.12766 13.5181ZM3.24836 14.7743C1.19425 17.9583 0 21.7642 0 25.8529C0 36.3832 7.92141 45.0376 18.0519 46.024C17.8518 43.8292 17.6365 41.8342 17.3781 39.9927C10.7898 38.7513 5.80145 32.8928 5.80145 25.8529C5.80145 23.3616 6.42615 21.0183 7.52541 18.9752C6.27328 17.6425 4.85635 16.2532 3.24836 14.7743ZM26.3378 6.63305C24.3423 5.9554 22.2064 5.58823 19.986 5.58823C17.7013 5.58823 15.5061 5.97693 13.4613 6.6927C13.5145 8.88705 14.6353 10.8129 16.317 11.9563C17.4873 11.6395 18.7172 11.4706 19.986 11.4706C21.2095 11.4706 22.3968 11.6276 23.5295 11.923C25.1993 10.7652 26.3041 8.83093 26.3378 6.63305ZM27.8195 7.20399C27.6486 9.29505 26.6903 11.1596 25.2461 12.4919C26.1714 12.8668 27.0487 13.3376 27.866 13.8923L33.6954 11.1072C31.9916 9.47817 30.0056 8.14929 27.8195 7.20399Z" fill="white"/>
<path d="M19.899 50C18.3616 30.3824 16.8532 24.2353 0 9.88235L19.899 19.3894L39.7979 9.88235C23.0318 24.1177 21.5234 30.3824 19.899 50Z" fill="#1E1E1E"/>
<path d="M26.3386 6.52941C26.3386 10.1355 23.4555 13.0588 19.899 13.0588C16.3424 13.0588 13.4594 10.1355 13.4594 6.52941C13.4594 2.92332 16.3424 0 19.899 0C23.4555 0 26.3386 2.92332 26.3386 6.52941Z" fill="#1E1E1E"/>
</g>
<defs>
<clipPath id="clip0_36_635">
<rect width="183.036" height="50" fill="white"/>
</clipPath>
</defs>
</svg>
