<svg width="40" height="40" viewBox="0 0 40 40" fill="none" xmlns="http://www.w3.org/2000/svg">
<rect width="40" height="40" fill="#1E1E1E"/>
<path d="M39.9972 20.0007C39.9972 30.1019 32.5098 38.4529 22.7831 39.808C21.8736 39.9341 20.9431 40 19.9986 40C18.9083 40 17.8377 39.9131 16.7951 39.745C7.27298 38.2118 0 29.9548 0 20.0007C0 8.95491 8.95459 0 20 0C31.0454 0 40 8.95491 40 20.0007H39.9972Z" fill="#1E1E1E"/>
<path d="M8.11099 8.82178L17.3346 21.154L8.05353 31.181H10.1429L18.2693 22.4027L24.8346 31.181H31.9437L22.2015 18.1551L30.8408 8.82178H28.7514L21.2682 16.9064L15.2214 8.82178H8.11237H8.11099ZM11.1827 10.3605H14.4479L28.8691 29.6423H25.604L11.1827 10.3605Z" fill="#A225EE"/>
</svg>
